<svg height="512pt" viewBox="-1 0 512 512" width="512pt" xmlns="http://www.w3.org/2000/svg"><path d="m311.328125 448.34375c0 31.015625-25.144531 56.15625-56.15625 56.15625-31.015625 0-56.160156-25.140625-56.160156-56.15625s25.144531-56.15625 56.160156-56.15625c31.011719 0 56.15625 25.140625 56.15625 56.15625zm0 0" fill="#cdd6df"/><path d="m255.171875 457.996094c-19.097656 0-34.59375 15.40625-34.742187 34.46875 9.558593 7.539062 21.625 12.035156 34.742187 12.035156 13.113281 0 25.179687-4.496094 34.738281-12.035156-.148437-19.0625-15.644531-34.46875-34.738281-34.46875zm0 0" fill="#426175"/><path d="m274.613281 438.554688c0 10.738281-8.703125 19.441406-19.441406 19.441406-10.742187 0-19.445313-8.703125-19.445313-19.441406 0-10.738282 8.703126-19.445313 19.445313-19.445313 10.738281 0 19.441406 8.707031 19.441406 19.445313zm0 0" fill="#426175"/><path d="m502.839844 448.34375c0 31.015625-25.140625 56.15625-56.15625 56.15625s-56.15625-25.140625-56.15625-56.15625 25.140625-56.15625 56.15625-56.15625 56.15625 25.140625 56.15625 56.15625zm0 0" fill="#cdd6df"/><path d="m446.683594 457.996094c-19.097656 0-34.589844 15.40625-34.742188 34.46875 9.558594 7.539062 21.625 12.035156 34.742188 12.035156 13.117187 0 25.183594-4.496094 34.742187-12.035156-.152343-19.0625-15.644531-34.46875-34.742187-34.46875zm0 0" fill="#426175"/><path d="m466.128906 438.554688c0 10.738281-8.707031 19.441406-19.445312 19.441406-10.738282 0-19.445313-8.703125-19.445313-19.441406 0-10.738282 8.707031-19.445313 19.445313-19.445313 10.738281 0 19.445312 8.707031 19.445312 19.445313zm0 0" fill="#426175"/><path d="m119.8125 448.34375c0 31.015625-25.140625 56.15625-56.15625 56.15625s-56.15625-25.140625-56.15625-56.15625 25.140625-56.15625 56.15625-56.15625 56.15625 25.140625 56.15625 56.15625zm0 0" fill="#cdd6df"/><path d="m63.582031 457.996094c-19.097656-.148438-34.710937 15.136718-35.011719 34.195312 9.496094 7.613282 21.527344 12.203125 34.644532 12.304688 13.117187.105468 25.21875-4.296875 34.835937-11.761719 0-19.058594-15.371093-34.585937-34.46875-34.738281zm0 0" fill="#426175"/><path d="m83.179688 438.554688c0 10.738281-8.707032 19.441406-19.445313 19.441406s-19.445313-8.703125-19.445313-19.441406c0-10.738282 8.707032-19.445313 19.445313-19.445313s19.445313 8.707031 19.445313 19.445313zm0 0" fill="#426175"/><path d="m374.011719 115.144531c-3.59375 0-7.132813.214844-10.617188.621094-.195312-59.828125-48.753906-108.265625-108.625-108.265625-42.425781 0-79.164062 24.324219-97.046875 59.78125-62.324218 1.359375-112.429687 52.304688-112.429687 114.953125 0 63.503906 51.480469 114.984375 114.984375 114.984375h213.734375c50.28125 0 91.039062-40.757812 91.039062-91.035156-.003906-50.28125-40.761719-91.039063-91.039062-91.039063zm0 0" fill="#88dbfd"/><path d="m374.011719 115.144531c-3.59375 0-7.132813.214844-10.617188.621094-.195312-59.828125-48.753906-108.265625-108.625-108.265625-24.179687 0-46.503906 7.910156-64.550781 21.269531 2.890625-.234375 5.8125-.363281 8.765625-.363281 59.871094 0 108.425781 48.4375 108.625 108.265625 3.484375-.40625 7.023437-.621094 10.617187-.621094 50.277344 0 91.035157 40.761719 91.035157 91.039063 0 28.199218-12.820313 53.402344-32.953125 70.101562 49.21875-1.21875 88.742187-41.5 88.742187-91.007812-.003906-50.28125-40.761719-91.039063-91.039062-91.039063zm0 0" fill="#5abfe9"/><path d="m347.457031 208.992188h-184.574219c-6.851562 0-12.410156-5.554688-12.410156-12.40625v-42.601563c0-6.855469 5.558594-12.410156 12.410156-12.410156h184.574219c6.851563 0 12.40625 5.554687 12.40625 12.410156v42.601563c.003907 6.851562-5.554687 12.40625-12.40625 12.40625zm0 0" fill="#f2f2f2"/><path d="m347.457031 141.574219h-43.378906v38.804687c0 6.851563-5.554687 12.40625-12.40625 12.40625h-141.199219v3.800782c0 6.851562 5.558594 12.410156 12.410156 12.410156h184.574219c6.851563 0 12.40625-5.558594 12.40625-12.410156v-42.601563c.003907-6.855469-5.554687-12.410156-12.40625-12.410156zm0 0" fill="#cdd6df"/><path d="m347.457031 276.414062h-184.574219c-6.851562 0-12.410156-5.554687-12.410156-12.410156v-42.601562c0-6.851563 5.558594-12.410156 12.410156-12.410156h184.574219c6.851563 0 12.40625 5.558593 12.40625 12.410156v42.601562c.003907 6.855469-5.554687 12.410156-12.40625 12.410156zm0 0" fill="#f2f2f2"/><path d="m347.457031 208.992188h-43.378906v38.804687c0 6.851563-5.554687 12.410156-12.40625 12.410156h-141.199219v3.800781c0 6.851563 5.558594 12.40625 12.410156 12.40625h184.574219c6.851563 0 12.40625-5.554687 12.40625-12.40625v-42.605468c.003907-6.851563-5.554687-12.410156-12.40625-12.410156zm0 0" fill="#cdd6df"/><path d="m347.457031 343.835938h-184.574219c-6.851562 0-12.410156-5.558594-12.410156-12.410157v-42.601562c0-6.851563 5.558594-12.410157 12.410156-12.410157h184.574219c6.851563 0 12.40625 5.558594 12.40625 12.410157v42.601562c.003907 6.851563-5.554687 12.410157-12.40625 12.410157zm0 0" fill="#f2f2f2"/><path d="m347.457031 276.414062h-43.378906v38.804688c0 6.851562-5.554687 12.40625-12.40625 12.40625h-141.199219v3.800781c0 6.851563 5.558594 12.410157 12.410156 12.410157h184.574219c6.851563 0 12.40625-5.558594 12.40625-12.410157v-42.601562c.003907-6.855469-5.554687-12.410157-12.40625-12.410157zm0 0" fill="#cdd6df"/><g fill="#fd715c"><path d="m192.710938 173.269531c0 5.011719-4.0625 9.078125-9.078126 9.078125-5.011718 0-9.078124-4.066406-9.078124-9.078125 0-5.015625 4.066406-9.078125 9.078124-9.078125 5.015626 0 9.078126 4.0625 9.078126 9.078125zm0 0"/><path d="m228.617188 173.269531c0 5.011719-4.0625 9.078125-9.078126 9.078125-5.011718 0-9.078124-4.066406-9.078124-9.078125 0-5.015625 4.066406-9.078125 9.078124-9.078125 5.015626 0 9.078126 4.0625 9.078126 9.078125zm0 0"/><path d="m192.710938 242.703125c0 5.015625-4.0625 9.078125-9.078126 9.078125-5.011718 0-9.078124-4.0625-9.078124-9.078125 0-5.011719 4.066406-9.078125 9.078124-9.078125 5.015626 0 9.078126 4.066406 9.078126 9.078125zm0 0"/><path d="m228.617188 242.703125c0 5.015625-4.0625 9.078125-9.078126 9.078125-5.011718 0-9.078124-4.0625-9.078124-9.078125 0-5.011719 4.066406-9.078125 9.078124-9.078125 5.015626 0 9.078126 4.066406 9.078126 9.078125zm0 0"/><path d="m192.710938 310.125c0 5.011719-4.0625 9.078125-9.078126 9.078125-5.011718 0-9.078124-4.066406-9.078124-9.078125 0-5.015625 4.066406-9.078125 9.078124-9.078125 5.015626 0 9.078126 4.0625 9.078126 9.078125zm0 0"/><path d="m228.617188 310.125c0 5.011719-4.0625 9.078125-9.078126 9.078125-5.011718 0-9.078124-4.066406-9.078124-9.078125 0-5.015625 4.066406-9.078125 9.078124-9.078125 5.015626 0 9.078126 4.0625 9.078126 9.078125zm0 0"/></g><path d="m116.769531 296.757812c3.875 1.472657 8.207031-.476562 9.675781-4.347656 1.472657-3.871094-.472656-8.203125-4.347656-9.671875-20.160156-7.664062-37.398437-21.085937-49.851562-38.8125-12.726563-18.125-19.453125-39.457031-19.453125-61.691406 0-28.292969 10.902343-55.003906 30.699219-75.210937 19.769531-20.175782 46.1875-31.628907 74.390624-32.242188 2.773438-.0625 5.285157-1.644531 6.535157-4.121094 17.316406-34.332031 51.933593-55.660156 90.351562-55.660156 55.578125 0 100.941407 45.214844 101.128907 100.789062.003906 2.136719.921874 4.167969 2.519531 5.582032 1.597656 1.417968 3.726562 2.089844 5.84375 1.84375 3.253906-.378906 6.535156-.570313 9.75-.570313 46.0625 0 83.539062 37.476563 83.539062 83.539063 0 40.078125-28.527343 74.589844-67.832031 82.0625-4.070312.777344-6.742188 4.703125-5.96875 8.769531.683594 3.597656 3.828125 6.101563 7.359375 6.101563.464844 0 .9375-.042969 1.410156-.132813 46.371094-8.816406 80.03125-49.527344 80.03125-96.800781 0-54.332032-44.207031-98.539063-98.539062-98.539063-1.132813 0-2.273438.019531-3.417969.0625-4.335938-60.089843-54.703125-107.707031-115.824219-107.707031-42.621093 0-81.171875 22.859375-101.664062 59.960938-30.464844 1.753906-58.84375 14.636718-80.328125 36.5625-22.558594 23.03125-34.984375 53.46875-34.984375 85.710937 0 25.335937 7.667969 49.648437 22.179687 70.308594 14.179688 20.195312 33.824219 35.484375 56.796875 44.214843zm0 0"/><path d="m510.339844 448.34375c0-35.101562-28.558594-63.65625-63.65625-63.65625-29.109375 0-53.71875 19.640625-61.273438 46.367188h-68.96875c-6.894531-24.398438-28-42.890626-53.769531-45.929688v-33.789062h84.785156c10.980469 0 19.910157-8.933594 19.910157-19.910157v-42.605469c0-4.6875-1.628907-9.003906-4.351563-12.40625 2.722656-3.40625 4.351563-7.722656 4.351563-12.410156v-42.601562c0-4.6875-1.628907-9.003906-4.351563-12.410156 2.722656-3.40625 4.351563-7.722657 4.351563-12.410157v-42.601562c0-10.976563-8.929688-19.910157-19.910157-19.910157h-184.574219c-10.976562 0-19.910156 8.933594-19.910156 19.910157v42.601562c0 4.691407 1.628906 9.003907 4.351563 12.410157-2.722657 3.40625-4.351563 7.71875-4.351563 12.410156v42.601562c0 4.6875 1.628906 9.003906 4.351563 12.410156-2.722657 3.40625-4.351563 7.71875-4.351563 12.40625v42.605469c0 10.976563 8.933594 19.910157 19.910156 19.910157h84.789063v33.789062c-25.773437 3.039062-46.878906 21.53125-53.773437 45.929688h-68.945313c-2.867187-10.214844-8.28125-19.597657-15.929687-27.371094-11.929688-12.117188-27.863282-18.863282-44.867188-18.996094-.167969 0-.335938-.003906-.507812-.003906-34.867188 0-63.371094 28.230468-63.64453175 63.160156-.13671825 17.003906 6.35937475 33.039062 18.28906275 45.15625 11.929687 12.117188 27.863281 18.863281 44.863281 18.996094.171875.003906.339844.003906.511719.003906 14.402343 0 27.71875-4.816406 38.410156-12.933594.394531-.25.761719-.539062 1.097656-.851562 14.566407-11.566406 23.980469-29.371094 24.136719-49.371094.007812-.933594-.003906-1.863281-.039062-2.789062h64.28125c-.027344.757812-.042969 1.523437-.042969 2.289062 0 20.007812 9.28125 37.890625 23.761719 49.566406.328124.3125.6875.597656 1.070312.847656 10.753906 8.300782 24.222656 13.242188 38.828125 13.242188 14.601563 0 28.070313-4.941406 38.824219-13.242188.382812-.25.742187-.535156 1.070312-.847656 14.480469-11.675781 23.761719-29.558594 23.761719-49.566406 0-.765625-.015625-1.53125-.042969-2.289062h64.28125c-.027344.757812-.039062 1.523437-.039062 2.289062 0 20.007812 9.277344 37.890625 23.757812 49.566406.328125.3125.6875.597656 1.070313.847656 10.753906 8.300782 24.222656 13.242188 38.828125 13.242188 14.605468 0 28.078125-4.945312 38.828125-13.246094.382812-.246094.734375-.527344 1.0625-.839844 14.484375-11.675781 23.765625-29.5625 23.765625-49.570312zm-347.457032-179.429688c-2.707031 0-4.910156-2.203124-4.910156-4.910156v-42.601562c0-2.707032 2.203125-4.910156 4.910156-4.910156h184.574219c2.707031 0 4.90625 2.203124 4.90625 4.910156v42.601562c0 2.707032-2.199219 4.910156-4.90625 4.910156zm-4.910156-114.929687c0-2.707031 2.203125-4.910156 4.910156-4.910156h184.574219c2.707031 0 4.90625 2.203125 4.90625 4.910156v42.601563c0 2.707031-2.199219 4.90625-4.90625 4.90625h-184.574219c-2.707031 0-4.910156-2.199219-4.910156-4.90625zm0 177.441406v-42.601562c0-2.707031 2.203125-4.910157 4.910156-4.910157h184.574219c2.707031 0 4.90625 2.203126 4.90625 4.910157v42.601562c0 2.707031-2.199219 4.910157-4.90625 4.910157h-184.574219c-2.707031 0-4.910156-2.203126-4.910156-4.910157zm-94.308594 165.574219c-.128906 0-.257812 0-.390624-.003906-9.738282-.074219-19.019532-2.992188-26.898438-8.347656 1.988281-13.09375 13.367188-23.152344 26.929688-23.152344h.175781.042969.046874c13.625.132812 24.921876 10.382812 26.730469 23.542968-7.664062 5.03125-16.820312 7.960938-26.636719 7.960938zm-.023437-46.503906c-6.585937-.050782-11.902344-5.449219-11.847656-12.035156.050781-6.554688 5.398437-11.851563 11.941406-11.851563h.09375c6.585937.050781 11.902344 5.453125 11.851563 12.039063-.054688 6.585937-5.433594 11.914062-12.039063 11.847656zm39.015625 26.910156c-3.542969-9.027344-10.117188-16.566406-18.457031-21.347656 3.992187-4.660156 6.425781-10.691406 6.476562-17.292969.117188-14.855469-11.875-27.035156-26.730469-27.152344-.074218 0-.140624 0-.214843 0-14.757813 0-26.824219 11.945313-26.9375 26.730469-.050781 6.421875 2.132812 12.515625 6.191406 17.398438-8.417969 4.65625-15.109375 12.101562-18.789063 21.082031-6.050781-8.34375-9.273437-18.363281-9.191406-28.863281.207032-26.699219 21.992188-48.273438 48.648438-48.273438h.386718c12.996094.101562 25.175782 5.257812 34.292969 14.523438 9.117188 9.261718 14.085938 21.519531 13.980469 34.515624-.085938 10.746094-3.667969 20.667969-9.65625 28.679688zm125.554688 11.421875c1.910156-13.160156 13.308593-23.332031 26.960937-23.332031 13.648437 0 25.046875 10.171875 26.960937 23.332031-7.726562 5.160156-17 8.171875-26.960937 8.171875-9.964844 0-19.238281-3.011719-26.960937-8.171875zm15.015624-50.273437c0-6.585938 5.359376-11.945313 11.945313-11.945313s11.941406 5.359375 11.941406 11.945313c0 6.585937-5.355469 11.941406-11.941406 11.941406s-11.945313-5.355469-11.945313-11.941406zm51.167969 38.546874c-3.613281-9-10.246093-16.488281-18.621093-21.203124 3.953124-4.691407 6.339843-10.746094 6.339843-17.34375 0-14.859376-12.085937-26.945313-26.945312-26.945313-14.855469 0-26.941407 12.085937-26.941407 26.945313 0 6.597656 2.382813 12.652343 6.339844 17.34375-8.378906 4.714843-15.007812 12.203124-18.625 21.203124-5.925781-8.0625-9.429687-18.007812-9.429687-28.757812 0-26.832031 21.828125-48.65625 48.65625-48.65625s48.65625 21.828125 48.65625 48.65625c.003906 10.75-3.5 20.695312-9.429688 28.757812zm103.632813-28.757812c0-26.832031 21.828125-48.65625 48.65625-48.65625s48.65625 21.828125 48.65625 48.65625c0 10.75-3.503906 20.695312-9.429688 28.757812-3.617187-9-10.25-16.488281-18.625-21.203124 3.953125-4.691407 6.339844-10.746094 6.339844-17.34375 0-14.859376-12.085938-26.945313-26.941406-26.945313-14.859375 0-26.945313 12.085937-26.945313 26.945313 0 6.597656 2.386719 12.652343 6.339844 17.34375-8.375 4.714843-15.007813 12.203124-18.621094 21.203124-5.925781-8.0625-9.429687-18.007812-9.429687-28.757812zm36.710937-9.789062c0-6.585938 5.359375-11.945313 11.945313-11.945313 6.585937 0 11.941406 5.359375 11.941406 11.945313 0 6.585937-5.355469 11.941406-11.941406 11.941406-6.585938 0-11.945313-5.355469-11.945313-11.941406zm-15.015625 50.273437c1.914063-13.160156 13.3125-23.332031 26.960938-23.332031 13.648437 0 25.046875 10.171875 26.960937 23.332031-7.722656 5.160156-16.996093 8.171875-26.960937 8.171875s-19.238282-3.011719-26.960938-8.171875zm0 0"/></svg>