<svg id="_x33_0" enable-background="new 0 0 64 64" height="512" viewBox="0 0 64 64" width="512" xmlns="http://www.w3.org/2000/svg"><g><g><g><path d="m60 14h-3v3h-6v-3h-3l6-6z" fill="#ff826e"/></g><g><path d="m47 8h-3v15h-6v-15h-3l6-6z" fill="#ff826e"/></g><g><path d="m34 12h-3v11h-2-4v-11h-3l6-6z" fill="#ff826e"/></g><g><path d="m14 45v6c0 .55-.45 1-1 1h-1-6-1c-.55 0-1-.45-1-1v-6c0-2.76 2.24-5 5-5 1.12 0 2.16.37 2.99 1 .2.13.38.29.55.46.9.91 1.46 2.16 1.46 3.54z" fill="#fcd770"/></g><g><path d="m12 40.99c1.28-.08 2.42-.84 3-1.99 2.24 2.24 3.99 4.88 5.18 7.75s1.82 5.98 1.82 9.15v.1h-9c-.55 0-1-.45-1-1v-3h1c.55 0 1-.45 1-1v-6c0-1.38-.56-2.63-1.46-3.54-.17-.17-.35-.33-.55-.46z" fill="#fcd770"/></g><g><path d="m22 15.98c0 .89-.3 1.73-.81 2.4-.51.68-1.24 1.19-2.1 1.43-.03.01-.06.02-.09.02-.42.12-.85.17-1.28.17h-5.72c-1.66 0-3 1.34-3 3v1c-.55 0-1.05.22-1.41.58-.37.36-.59.86-.59 1.42 0 .64.25 1.25.71 1.71l1 1c.18.18.29.44.29.7v3.59l-3.13-2.24c-2.43-1.73-3.87-4.53-3.87-7.52v-.41c0-1.81.72-3.55 2-4.83 0-1.66.67-3.16 1.76-4.24 1.08-1.09 2.58-1.76 4.24-1.76h8.02c.41 0 .81.06 1.19.18 1.61.5 2.79 2.01 2.79 3.8z" fill="#b27946"/></g><g><path d="m19 19.84s3 4.16 3 9.16l-3 1v2.59c0 .9-.36 1.77-1 2.41s-1.51 1-2.41 1h-.59v3c-.58 1.15-1.72 1.91-3 1.99l-.01.01c-.83-.63-1.87-1-2.99-1v-7-3.59c0-.26-.11-.52-.29-.7l-1-1c-.46-.46-.71-1.07-.71-1.71 0-.56.22-1.06.59-1.42.36-.36.86-.58 1.41-.58v-1c0-1.66 1.34-3 3-3h5.72c.43 0 .86-.05 1.28-.17z" fill="#f0d0b4"/></g><g><path d="m24.8 54c.74 0 1.41.41 1.74 1.07l.46.93h2 1c1.1 0 2 .89 2 2 0 1.1-.45 2.1-1.17 2.83-.73.72-1.73 1.17-2.83 1.17-4.91 0-13.05 0-16.88 0-1.36 0-2.66-.54-3.63-1.51l-.04-.04c-.93-.93-1.45-2.19-1.45-3.51v-4.94h6v3c0 .55.45 1 1 1h9l1.43-1.43c.37-.37.86-.57 1.37-.57z" fill="#f0d0b4"/></g><g><path d="m38 56h12v6h-12z" fill="#aab2bd"/></g><g><path d="m62 50v3c0 1.66-1.34 3-3 3h-9-12-8-1c-1.66 0-3-1.34-3-3v-3z" fill="#ccd1d9"/></g><g><path d="m52.53 31.34c.3.17.49.5.49.85v1.81h3.96v-1.81c0-.35.19-.68.49-.85.01-.01.01-.01.01-.01.31-.18.68-.18.99 0l1.55.9 1.98-3.46v21.23h-36v-21c0-1.66 1.34-3 3-3h20.32l.25.14c.31.18.49.5.49.85v.02c0 .35-.18.67-.49.85l-1.57.91 1.98 3.46 1.55-.9c.31-.18.68-.18.99 0 0 0 0 0 .01.01z" fill="#69d6f4"/></g><g><path d="m44.53 38.85 4.47 7.15h-12l3.26-5.22 1.21-1.93c.33-.53.91-.85 1.53-.85s1.2.32 1.53.85z" fill="#e6e9ed"/></g><g><path d="m40.26 40.78-3.26 5.22h-7l3.37-10.1c.38-1.14 1.44-1.9 2.63-1.9s2.25.76 2.63 1.9z" fill="#e6e9ed"/></g><g><path d="m50.06 27.01c0-.01 0-.01 0-.02 0-.35-.18-.67-.49-.85l-.25-.14-1.32-.77 1.98-3.46 1.55.9c.31.18.68.18.99 0 0 0 0 0 .01-.01.3-.17.49-.5.49-.85v-1.81h3.96v1.81c0 .35.19.68.49.85.01.01.01.01.01.01.31.18.68.18.99 0l1.55-.9 1.98 3.46-1.57.91c-.31.18-.49.5-.49.85v.02c0 .35.18.67.49.85l1.57.91-1.98 3.46-1.55-.9c-.31-.18-.68-.18-.99 0 0 0 0 0-.01.01-.3.17-.49.5-.49.85v1.81h-3.96v-1.81c0-.35-.19-.68-.49-.85-.01-.01-.01-.01-.01-.01-.31-.18-.68-.18-.99 0l-1.55.9-1.98-3.46 1.57-.91c.31-.18.49-.5.49-.85zm2.94-.01c0 1.1.9 2 2 2s2-.9 2-2-.9-2-2-2-2 .9-2 2z" fill="#fcd770"/></g></g><g><path d="m55 30c1.654 0 3-1.346 3-3s-1.346-3-3-3-3 1.346-3 3 1.346 3 3 3zm0-4c.552 0 1 .448 1 1s-.448 1-1 1-1-.448-1-1 .448-1 1-1z"/><path d="m60.944 27 2.418-1.404-2.979-5.198-2.393 1.409-.007-2.807h-5.967l.024 2.789.008.014-.014.008-2.418-1.413-2.637 4.602h-17.979c-2.206 0-4 1.794-4 4v24c0 .004.001.008.001.013-.066-.004-.131-.014-.199-.014-.698 0-1.373.266-1.901.717-.49-5.69-2.892-10.985-6.901-15.126v-1.63c1.021-.095 1.973-.518 2.707-1.253.834-.834 1.293-1.942 1.293-3.121v-1.865l3-1v-.721c0-3.807-1.597-7.101-2.531-8.706 1.527-.87 2.531-2.502 2.531-4.315 0-1.121-.386-2.145-1.013-2.979h2.013v10h2v-12h-1.586l3.586-3.586 3.586 3.586h-1.586v12h2v-10h4.414l-8.414-8.414-7.241 7.241c-.787-.521-1.727-.828-2.739-.828h-8.02c-3.722 0-6.774 2.92-6.988 6.589-1.3 1.44-2.012 3.286-2.012 5.24v.415c0 3.301 1.604 6.416 4.289 8.334l2.711 1.937v5.576c-2.833.478-5 2.942-5 5.91v6c0 1.102.897 2 2 2l-.001 3.94c0 1.596.621 3.096 1.786 4.26 1.162 1.16 2.7 1.8 4.331 1.8l16.887-.001c2.756 0 4.997-2.243 4.997-5 0-.352-.072-.685-.184-.999h4.184v4h-2v2h18v-2h-2v-4h8c2.206 0 4-1.794 4-4v-23.964l.362-.632zm-10.868-1.721-.714-.414.987-1.724.678.396c.583.339 1.298.354 1.896.048l.107-.059c.608-.354.986-1.014.986-1.719v-.807h1.967v.809c0 .705.378 1.364 1.013 1.734l.012.006c.018.01.035.02.053.029l.024.012c.596.304 1.308.287 1.89-.053l.676-.396.987 1.724-.715.415c-.607.354-.984 1.011-.982 1.724-.002.705.375 1.362.982 1.716l.715.415-.987 1.724-.678-.396c-.614-.356-1.377-.355-2.003.011-.608.354-.986 1.014-.986 1.719v.807h-1.967v-.809c0-.705-.378-1.364-.995-1.725s-1.382-.363-1.996-.004l-.676.396-.987-1.724.715-.415c.607-.354.984-1.011.982-1.724.002-.704-.375-1.361-.984-1.716zm-29.12 29.72h-7.956v-2c1.103 0 2-.897 2-2v-6c0-1.31-.427-2.52-1.142-3.508.456-.233.869-.544 1.226-.913 3.608 3.991 5.664 9.037 5.872 14.421zm-2.956-25.72v3.307c0 .645-.251 1.251-.707 1.707s-1.063.707-1.707.707l-3.586-.001v2l2 .001v1.708c-.389.655-1.042 1.1-1.789 1.231-.661-.421-1.409-.714-2.211-.85v-9.675c0-.533-.207-1.035-.586-1.415l-1.001-1.001c-.267-.266-.413-.621-.413-.999 0-.552.448-1 1-1h1v-2c0-1.103.897-2 2-2h5.722c.269 0 .537-.019.803-.055.695 1.132 2.251 4.005 2.454 7.342zm-11.549.671c-2.161-1.544-3.451-4.051-3.451-6.707v-.415c0-1.557.606-3.021 1.707-4.122l.293-.293v-.414c0-2.757 2.243-5 5-5h8.021c1.643 0 2.979 1.337 2.979 2.979 0 1.331-.896 2.512-2.179 2.87-.356.1-.727.15-1.1.15h-5.721c-2.206 0-4 1.794-4 4v.171c-1.164.413-2 1.525-2 2.829 0 .913.355 1.771 1 2.414l1 1.001v1.642zm-1.451 15.049c0-2.206 1.794-4 4-4s4 1.794 4 4v6l-8 .002zm26 13c0 1.654-1.345 3-2.997 3l-16.887.001c-1.097 0-2.133-.432-2.954-1.253-.75-.749-1.163-1.746-1.163-2.808l.001-3.94h4v2c0 1.103.897 2 2 2h9.414l1.727-1.726c.425-.429 1.229-.298 1.5.244l.741 1.481h2.609c.003.001.006.002.009.002h1.005c.549.003.995.449.995.999zm18 3.001h-10v-4h10zm10-6h-28.99c-.003 0-.006-.001-.01-.001h-1.01c-1.098-.005-1.99-.9-1.99-1.999v-2h34v2c0 1.103-.897 2-2 2zm2-6h-34v-20c0-1.103.897-2 2-2h20.055l-2.418 1.404 2.979 5.198 2.399-1.411v2.809h5.967l-.019-2.811 2.418 1.413.619-1.076z"/><path d="m45.378 38.317c-.517-.825-1.405-1.317-2.378-1.317s-1.861.492-2.378 1.317l-.084.135-.957-2.871c-.515-1.544-1.954-2.581-3.581-2.581s-3.066 1.037-3.581 2.581l-1.419 4.257v-10.838h-2v18h23v-2h-2.446zm-1.695 1.061 3.513 5.622h-8.392l3.513-5.622c.297-.473 1.069-.473 1.366 0zm-9.368-3.164c.243-.726.919-1.214 1.685-1.214s1.442.488 1.685 1.214l1.479 4.438-2.718 4.348h-5.059z"/><path d="m52 41h7v2h-7z"/><path d="m52 37h7v2h-7z"/><path d="m35 29h4v2h-4z"/><path d="m41 29h4v2h-4z"/><path d="m37 23h2v-16h-1.586l3.586-3.586 3.586 3.586h-1.586v16h2v-14h4.414l-8.414-8.414-8.414 8.414h4.414z"/><path d="m50 15v2h2v-4h-1.586l3.586-3.586 3.586 3.586h-1.586v4h2v-2h4.414l-8.414-8.414-8.414 8.414z"/></g></g></svg>