<svg id="_x33_0" enable-background="new 0 0 64 64" height="512" viewBox="0 0 64 64" width="512" xmlns="http://www.w3.org/2000/svg"><g><g><g><path d="m58 32c0 3.82-.82 7.44-2.3 10.71-1.14-.46-2.39-.71-3.7-.71-1.02 0-2.01.15-2.94.44 1.87-3.04 2.94-6.61 2.94-10.44 0-5.18-1.97-9.91-5.21-13.46-3.23-3.56-7.73-5.94-12.79-6.44v2.9l-3.88-2.91-4.12-3.09 3.89-2.92 4.11-3.08v3.08c13.43 1.02 24 12.23 24 25.92z" fill="#fcd770"/></g><g><path d="m26 9 4.12 3.09c-10.17.95-18.12 9.5-18.12 19.91 0 .68.03 1.34.1 2-.03 0-.07 0-.1 0-2.13 0-4.1.67-5.72 1.8-.19-1.24-.28-2.51-.28-3.8 0-13.65 10.52-24.84 23.89-25.92z" fill="#fcd770"/></g><g><path d="m44 58h-12c-5.79 0-11.13-1.89-15.46-5.09 1.85-.94 3.37-2.45 4.33-4.29 3.18 2.13 7.01 3.38 11.13 3.38h10c0 2.25.75 4.33 2 6z" fill="#fcd770"/></g><g><path d="m38 24h4v18h-4z" fill="#ff826e"/></g><g><path d="m30 28h4v14h-4z" fill="#ff826e"/></g><g><path d="m22 32h4v10h-4z" fill="#ff826e"/></g><g><circle cx="52" cy="52" fill="#e6e9ed" r="10"/></g><g><path d="m57.62 56.96.38 3.04c-1.67 1.25-3.75 2-6 2s-4.33-.75-6-2l.38-3.04c.35-2.83 2.76-4.96 5.62-4.96 1.43 0 2.75.53 3.75 1.42 1.01.88 1.69 2.12 1.87 3.54z" fill="#5cd6b3"/></g><g><circle cx="52" cy="49" fill="#f0d0b4" r="3"/></g><g><path d="m16 53.17v4.83c0 1.1-.9 2-2 2h-4c-1.1 0-2-.9-2-2v-4.83-.01c.63.28 1.3.5 2 .64.64.13 1.31.2 2 .2s1.36-.07 2-.2c.7-.14 1.37-.36 2-.64z" fill="#ccd1d9"/></g><g><path d="m12.1 34c-.03 0-.07 0-.1 0-2.13 0-4.1.67-5.72 1.8-2.59 1.81-4.28 4.81-4.28 8.2 0 4.1 2.47 7.62 6 9.16.63.28 1.3.5 2 .64.64.13 1.31.2 2 .2s1.36-.07 2-.2c.7-.14 1.37-.36 2-.64.19-.07.36-.16.54-.25 1.85-.94 3.37-2.45 4.33-4.29.72-1.38 1.13-2.95 1.13-4.62 0-5.49-4.43-9.95-9.9-10z" fill="#ffeaa7"/></g><g><circle cx="16" cy="43" fill="#fcd770" r="2"/></g><g><circle cx="8" cy="43" fill="#fcd770" r="2"/></g></g><path d="m56.993 42.211c1.327-3.24 2.007-6.668 2.007-10.211 0-13.722-10.469-25.333-24-26.835v-4.165l-5.492 4.119c-13.767 1.264-24.508 13.01-24.508 26.881 0 1.121.084 2.245.222 3.354-2.565 2.016-4.222 5.138-4.222 8.646 0 4.264 2.444 7.961 6 9.786v4.214c0 1.654 1.346 3 3 3h4c1.654 0 3-1.346 3-3v-3.571c4.445 2.982 9.598 4.571 15 4.571h11.521c2.019 2.441 5.07 4 8.479 4 6.065 0 11-4.935 11-11 0-4.267-2.447-7.965-6.007-9.789zm-23.068-35.138c12.939.984 23.075 11.934 23.075 24.927 0 3.284-.631 6.461-1.861 9.462-.995-.297-2.048-.462-3.139-.462-.358 0-.712.02-1.061.054 1.346-2.814 2.061-5.902 2.061-9.054 0-10.843-8.126-19.827-18.901-20.896l-1.099-.109v2.005l-5.333-4 5.333-4v2.002zm7.126 43.927h-9.051c-3.501 0-6.885-.96-9.85-2.764.546-1.305.85-2.735.85-4.236 0-.338-.021-.67-.051-1h20.051v-20h-6v18h-2v-14h-6v14h-2v-10h-6v6.695c-1.802-2.564-4.664-4.329-7.948-4.642-.019-.352-.052-.703-.052-1.053 0-9.744 7.219-17.783 16.846-18.866l5.154 3.866v-3.766c9.196 1.447 16 9.328 16 18.766 0 3.399-.912 6.717-2.625 9.627-3.985 1.397-6.93 5.018-7.324 9.373zm-18.051-10v-8h2v8zm10 0h-2v-12h2zm6 0v-16h2v16zm-32-9c0-11.584 8.091-21.566 19.029-24.272l-1.696 1.272 3.291 2.469c-9.626 2.016-16.624 10.447-16.624 20.531 0 .348.034.698.052 1.048-1.41.121-2.741.512-3.949 1.117-.062-.72-.103-1.443-.103-2.165zm-4 12c0-4.962 4.038-9 9-9s9 4.038 9 9c0 3.909-2.51 7.235-6 8.475v-6.659c.314.112.648.184 1 .184 1.654 0 3-1.346 3-3s-1.346-3-3-3c-1.302 0-2.402.839-2.816 2h-2.369c-.413-1.161-1.513-2-2.815-2-1.654 0-3 1.346-3 3s1.346 3 3 3c.352 0 .686-.072 1-.184v6.659c-3.49-1.24-6-4.566-6-8.475zm8 0h2v8.941c-.329.037-.662.059-1 .059s-.671-.022-1-.059zm4-1c0-.551.449-1 1-1s1 .449 1 1-.449 1-1 1-1-.449-1-1zm-6 0c0 .551-.449 1-1 1s-1-.449-1-1 .449-1 1-1 1 .449 1 1zm5 16h-4c-.551 0-1-.449-1-1v-3.426c.955.271 1.959.426 3 .426s2.045-.155 3-.426v3.426c0 .551-.449 1-1 1zm18-2c-4.895 0-9.57-1.406-13.625-4.053 1.116-.798 2.078-1.795 2.831-2.945 3.256 1.957 6.962 2.998 10.794 2.998h9.051c.13 1.43.537 2.779 1.164 4zm15.068 2.519.304-2.434c.291-2.329 2.281-4.085 4.628-4.085s4.337 1.756 4.628 4.085l.304 2.434c-1.418.934-3.111 1.481-4.932 1.481s-3.514-.547-4.932-1.481zm2.932-10.519c0-1.103.897-2 2-2s2 .897 2 2-.897 2-2 2-2-.897-2-2zm8.749 8.934-.137-1.096c-.285-2.285-1.716-4.184-3.67-5.15.651-.712 1.058-1.65 1.058-2.688 0-2.206-1.794-4-4-4s-4 1.794-4 4c0 1.038.407 1.976 1.057 2.687-1.954.966-3.384 2.865-3.67 5.15l-.137 1.096c-1.395-1.585-2.25-3.659-2.25-5.933 0-4.962 4.038-9 9-9s9 4.038 9 9c0 2.274-.855 4.348-2.251 5.934z"/></g></svg>